HIERARCHY
ROOT Hips
{
	OFFSET 0.000000 0.000000 0.000000
	CHANNELS 6 Xposition Yposition Zposition Zrotation Yrotation Xrotation 
	JOINT LHipJoint
	{
		OFFSET 0.000000 0.000000 0.000000
		CHANNELS 3 Zrotation Yrotation Xrotation
		JOINT LeftUpLeg
		{
			OFFSET 1.363060 -1.794630 0.839290
			CHANNELS 3 Zrotation Yrotation Xrotation
			JOINT LeftLeg
			{
				OFFSET 2.448110 -6.726130 0.000000
				CHANNELS 3 Zrotation Yrotation Xrotation
				JOINT LeftFoot
				{
					OFFSET 2.562200 -7.039590 0.000000
					CHANNELS 3 Zrotation Yrotation Xrotation
					JOINT LeftToeBase
					{
						OFFSET 0.157640 -0.433110 2.322550
						CHANNELS 3 Zrotation Yrotation Xrotation
						End Site
						{
							OFFSET 0.000000 0.000000 0.000000
						}
					}
				}
			}
		}
	}
	JOINT RHipJoint
	{
		OFFSET 0.000000 0.000000 0.000000
		CHANNELS 3 Zrotation Yrotation Xrotation
		JOINT RightUpLeg
		{
			OFFSET -1.305520 -1.794630 0.839290
			CHANNELS 3 Zrotation Yrotation Xrotation
			JOINT RightLeg
			{
				OFFSET -2.542530 -6.985550 0.000000
				CHANNELS 3 Zrotation Yrotation Xrotation
				JOINT RightFoot
				{
					OFFSET -2.568260 -7.056230 0.000000
					CHANNELS 3 Zrotation Yrotation Xrotation
					JOINT RightToeBase
					{
						OFFSET -0.164730 -0.452590 2.363150
						CHANNELS 3 Zrotation Yrotation Xrotation
						End Site
						{
							OFFSET 0.000000 0.000000 0.000000
						}
					}
				}
			}
		}
	}
}
MOTION
Frames: 14
Frame Time: 0.008333
3.308039 16.200792 0.333363 163.678313 -73.380973 -147.290073 -9.620810 -0.357811 -2.473744 -3.837126 20.847773 -31.321623 -1.690880 0.967539 30.853377 3.551560 23.398347 -2.751360 2.446800 -0.000000 -59.922000 11.608962 1.050567 3.227067 -9.149742 1.349777 -43.180900 0.568577 -3.130414 45.215917 -0.176678 2.495408 -11.561873 -0.031900 0.000001 -77.617900
3.291393 16.219723 0.331233 166.012892 -71.208465 -149.365817 -9.681580 -0.277344 -2.624810 -3.889964 21.756585 -30.757644 -1.719602 0.964341 30.346353 3.715921 24.588759 -2.495079 2.712100 0.000000 -59.599500 11.497453 1.040017 3.569447 -9.341347 2.735224 -43.794659 0.535451 -3.034459 44.669839 -0.033507 3.253188 -11.000562 -0.040300 0.000000 -77.876200
3.272658 16.245565 0.330815 168.066159 -69.005117 -151.112073 -9.736159 -0.193500 -2.761953 -3.921985 22.657104 -30.155501 -1.748676 0.946561 29.667525 3.878070 25.792915 -2.141087 3.042500 0.000000 -59.275300 11.380876 1.015271 3.936229 -9.515759 4.202714 -44.357442 0.506633 -2.921243 43.908248 0.102570 3.960329 -10.342671 -0.030300 -0.000000 -78.089800
3.251544 16.277945 0.331930 169.908982 -66.785037 -152.592544 -9.791605 -0.110545 -2.882188 -3.927772 23.540912 -29.527980 -1.777128 0.914598 28.829681 4.035539 26.993276 -1.695734 3.439800 0.000000 -58.908700 11.251627 0.972451 4.326269 -9.672441 5.748128 -44.868190 0.482843 -2.790728 42.923500 0.230299 4.606462 -9.586213 0.000400 0.000001 -78.295900
3.228269 16.316223 0.334190 171.583609 -64.560742 -153.850463 -9.853240 -0.032118 -2.985862 -3.901314 24.405091 -28.883292 -1.804197 0.869886 27.850368 4.185330 28.171632 -1.163078 3.905200 0.000000 -58.517600 11.104524 0.909785 4.735637 -9.812599 7.363566 -45.322618 0.464789 -2.643764 41.715046 0.349273 5.186083 -8.731569 0.052500 -0.000000 -78.482300
3.202866 16.359671 0.337486 173.128676 -62.345878 -154.924983 -9.925729 0.039026 -3.073295 -3.838315 25.246816 -28.230428 -1.829145 0.814234 26.750410 4.324242 29.306592 -0.549277 4.436600 0.000000 -58.103400 10.935501 0.826063 5.160216 -9.938228 9.036937 -45.716858 0.453719 -2.481365 40.283119 0.459486 5.695850 -7.778293 0.125800 0.000000 -78.665700
3.175817 16.407363 0.341477 174.562612 -60.154417 -155.840678 -10.011966 0.100886 -3.147968 -3.732662 26.067997 -27.572027 -1.851462 0.750302 25.554932 4.448645 30.376754 0.143077 5.030600 -0.000001 -57.711600 10.743526 0.721954 5.592507 -10.051159 10.748697 -46.040987 0.451549 -2.305410 38.633695 0.561979 6.139750 -6.729439 0.219000 0.000000 -78.790500
3.147251 16.458388 0.345828 175.900162 -58.000901 -156.617307 -10.113433 0.152902 -3.211374 -3.584168 26.867447 -26.915187 -1.871119 0.680453 24.289831 4.555058 31.356910 0.903450 5.676400 0.000000 -57.316500 10.529263 0.598320 6.027543 -10.155246 12.477046 -46.291890 0.459858 -2.117815 36.774380 0.657515 6.519775 -5.583623 0.330300 0.000000 -78.924700
3.117908 16.511687 0.350150 177.141938 -55.899578 -157.268574 -10.229641 0.195374 -3.267822 -3.392940 27.647480 -26.261018 -1.888298 0.607690 22.983062 4.640153 32.224923 1.726077 6.362100 0.000000 -56.945000 10.296484 0.458215 6.457221 -10.253457 14.193487 -46.461255 0.480871 -1.921296 34.720565 0.747860 6.846274 -4.345165 0.457700 -0.000000 -79.052500
3.088340 16.566203 0.354205 178.291142 -53.866920 -157.809865 -10.359003 0.229606 -3.320970 -3.162602 28.408130 -25.610274 -1.903143 0.534754 21.661211 4.701619 32.962841 2.605284 7.073900 -0.000001 -56.634199 10.050783 0.305681 6.873403 -10.348310 15.865606 -46.542603 0.517000 -1.718865 32.494414 0.834935 7.132419 -3.020602 0.599400 0.000000 -79.167600
3.059316 16.620915 0.357662 179.342076 -51.917809 -158.250697 -10.498311 0.258045 -3.374092 -2.899242 29.148004 -24.963019 -1.916351 0.464209 20.349619 4.737807 33.555307 3.532118 7.793800 0.000000 -56.397400 9.799906 0.146055 7.267874 -10.440012 17.458906 -46.530481 0.570239 -1.513598 30.124094 0.920840 7.394875 -1.619064 0.754900 0.000000 -79.276000
3.031517 16.674820 0.360335 -179.709345 -50.067825 -158.601563 -10.643564 0.283745 -3.429012 -2.611517 29.860542 -24.318502 -1.928082 0.397953 19.069222 4.748948 33.998274 4.500455 8.506700 0.000000 -56.277900 9.552844 -0.014313 7.632330 -10.526622 18.937209 -46.421786 0.642090 -1.308674 27.646020 1.007649 7.653360 -0.154469 0.924900 -0.000000 -79.374600
3.005647 16.727019 0.361975 -178.868542 -48.330435 -158.871648 -10.790430 0.310131 -3.487000 -2.308709 30.542304 -23.679751 -1.939796 0.337976 17.841991 4.735215 34.283186 5.493045 9.188701 0.000000 -56.237900 9.318547 -0.168932 7.959581 -10.601041 20.267690 -46.215419 0.733123 -1.106827 25.100592 1.097095 7.928180 1.356878 1.112100 0.000000 -79.469999
2.982284 16.776735 0.362650 -178.135908 -46.718666 -159.073488 -10.934669 0.340056 -3.547828 -2.000023 31.186240 -23.051135 -1.952295 0.285667 16.686064 4.698586 34.412282 6.494098 9.819900 0.000000 -56.277300 9.105195 -0.311158 8.243226 -10.653095 21.421092 -45.914450 0.843094 -0.910566 22.533424 1.190523 8.240332 2.893287 1.320800 0.000000 -79.558800
